<?xml version="1.0" encoding="UTF-8" standalone="no"?>
<!-- Created with Inkscape (http://www.inkscape.org/) -->

<svg
   xmlns:dc="http://purl.org/dc/elements/1.1/"
   xmlns:cc="http://creativecommons.org/ns#"
   xmlns:rdf="http://www.w3.org/1999/02/22-rdf-syntax-ns#"
   xmlns:svg="http://www.w3.org/2000/svg"
   xmlns="http://www.w3.org/2000/svg"
   xmlns:sodipodi="http://sodipodi.sourceforge.net/DTD/sodipodi-0.dtd"
   xmlns:inkscape="http://www.inkscape.org/namespaces/inkscape"
   width="100mm"
   height="34mm"
   viewBox="0 0 100 34"
   version="1.1"
   id="svg8"
   inkscape:version="0.92.2 (5c3e80d, 2017-08-06)"
   sodipodi:docname="logo.svg"
   inkscape:export-filename="/Users/wallacecoelho/Desktop/logo.png"
   inkscape:export-xdpi="96"
   inkscape:export-ydpi="96">
  <defs
     id="defs2" />
  <sodipodi:namedview
     id="base"
     pagecolor="#ffffff"
     bordercolor="#666666"
     borderopacity="1.0"
     inkscape:pageopacity="0.0"
     inkscape:pageshadow="2"
     inkscape:zoom="0.24748737"
     inkscape:cx="-135.57824"
     inkscape:cy="181.43988"
     inkscape:document-units="mm"
     inkscape:current-layer="layer1"
     showgrid="false"
     inkscape:window-width="1280"
     inkscape:window-height="751"
     inkscape:window-x="0"
     inkscape:window-y="23"
     inkscape:window-maximized="0" />
  <metadata
     id="metadata5">
    <rdf:RDF>
      <cc:Work
         rdf:about="">
        <dc:format>image/svg+xml</dc:format>
        <dc:type
           rdf:resource="http://purl.org/dc/dcmitype/StillImage" />
        <dc:title></dc:title>
      </cc:Work>
    </rdf:RDF>
  </metadata>
  <g
     inkscape:label="Camada 1"
     inkscape:groupmode="layer"
     id="layer1"
     transform="translate(0,-263)">
    <g
       id="g4546"
       transform="translate(5.4227413,-2.7350644)">
      <g
         transform="translate(-45.176136,205.88108)"
         id="text3701"
         style="font-style:normal;font-variant:normal;font-weight:normal;font-stretch:normal;font-size:29.02759552px;line-height:1.25;font-family:'Rubrik Bold';-inkscape-font-specification:'Rubrik Bold, ';letter-spacing:0px;word-spacing:0px;fill:#000000;fill-opacity:1;stroke:none;stroke-width:0.72568983"
         aria-label="library">
        <path
           inkscape:connector-curvature="0"
           id="path4510"
           style="font-style:normal;font-variant:normal;font-weight:normal;font-stretch:normal;font-family:'Rubrik Bold';-inkscape-font-specification:'Rubrik Bold, ';stroke-width:0.72568983"
           d="m 47.556399,64.239362 c -1.364297,0 -2.380263,1.103049 -2.380263,2.496374 v 16.110315 c 0,1.364297 1.074021,2.467346 2.380263,2.467346 1.393324,0 2.40929,-1.074021 2.40929,-2.467346 V 66.735736 c 0,-1.393325 -1.103048,-2.496374 -2.40929,-2.496374 z" />
        <path
           sodipodi:nodetypes="sssssss"
           inkscape:connector-curvature="0"
           id="path4512"
           style="font-style:normal;font-variant:normal;font-weight:normal;font-stretch:normal;font-family:'Rubrik Bold';-inkscape-font-specification:'Rubrik Bold, ';stroke-width:0.72568983"
           d="m 56.035632,69.290164 c -1.393325,0 -2.380263,1.074021 -2.380263,2.467346 v 11.088541 c 0,1.364297 1.103049,2.467346 2.380263,2.467346 1.364297,0 2.40929,-1.103049 2.40929,-2.467346 V 71.75751 c 0,-1.393325 -1.044993,-2.467346 -2.40929,-2.467346 z" />
        <path
           inkscape:connector-curvature="0"
           id="path4514"
           style="font-style:normal;font-variant:normal;font-weight:normal;font-stretch:normal;font-family:'Rubrik Bold';-inkscape-font-specification:'Rubrik Bold, ';stroke-width:0.72568983"
           d="m 76.380348,75.095683 c -0.348332,-3.628449 -2.670539,-5.979685 -6.473154,-5.979685 -1.132077,0 -2.119015,0.203194 -2.989843,0.580552 v -3.047897 c 0,-1.364297 -1.103048,-2.467346 -2.40929,-2.467346 -1.364297,0 -2.380263,1.074021 -2.380263,2.467346 v 15.355598 c 0,0.696662 0.261248,1.219159 0.812773,1.596518 1.741656,1.248186 3.831642,1.857766 6.298988,1.857766 2.002904,0 3.657477,-0.580552 4.963719,-1.741656 1.306242,-1.190132 2.031932,-2.670539 2.17707,-4.47025 0.11611,-1.364297 0.11611,-2.757621 0,-4.150946 z m -4.760526,3.280118 c -0.08708,1.509435 -0.986938,2.380263 -2.496373,2.380263 -0.841801,0 -1.596518,-0.232221 -2.206098,-0.72569 V 74.28291 c 0.638607,-0.406386 1.45138,-0.609579 2.409291,-0.609579 1.422352,0 2.206097,0.783745 2.29318,2.322207 0.02903,0.696663 0.02903,1.480408 0,2.380263 z" />
        <path
           inkscape:connector-curvature="0"
           id="path4516"
           style="font-style:normal;font-variant:normal;font-weight:normal;font-stretch:normal;font-family:'Rubrik Bold';-inkscape-font-specification:'Rubrik Bold, ';stroke-width:0.72568983"
           d="m 87.486577,69.464329 c -0.8418,-0.23222 -1.799711,-0.348331 -2.902759,-0.348331 -3.454284,0 -5.341078,1.944849 -5.341078,5.166912 v 8.621196 c 0,1.306242 1.103049,2.409291 2.409291,2.409291 1.364297,0 2.40929,-1.044994 2.40929,-2.409291 v -7.60523 c 0,-0.986938 0.406386,-1.480407 1.190132,-1.480407 0.319303,0 0.667634,0.02903 1.103048,0.11611 0.435414,0.08708 0.72569,0.116111 0.812773,0.116111 1.364297,0 2.148042,-1.161104 2.148042,-2.322208 0,-1.190131 -0.60958,-1.944849 -1.828739,-2.264153 z" />
        <path
           inkscape:connector-curvature="0"
           id="path4518"
           style="font-style:normal;font-variant:normal;font-weight:normal;font-stretch:normal;font-family:'Rubrik Bold';-inkscape-font-specification:'Rubrik Bold, ';stroke-width:0.72568983"
           d="m 103.72842,75.269849 c 0,-4.092891 -2.26415,-6.153851 -6.821481,-6.153851 -1.480407,0 -2.815677,0.232221 -3.97678,0.696663 -1.132077,0.435414 -1.683601,1.161103 -1.683601,2.119014 0,1.422352 1.306242,2.264153 3.251091,1.799711 1.044993,-0.261248 1.857766,-0.406386 2.40929,-0.406386 1.654573,0 2.264153,0.609579 2.264153,1.6836 v 0.986938 C 98.358319,75.73429 97.371381,75.61818 96.181249,75.61818 c -3.947753,0 -5.834546,2.031931 -5.834546,4.731498 0,2.902759 2.148042,5.108857 6.328015,5.108857 2.525401,0 4.615392,-0.522497 6.240932,-1.567491 0.55153,-0.377358 0.81277,-0.899855 0.81277,-1.596517 z m -6.850508,6.502181 c -1.190132,0 -2.031932,-0.522497 -2.031932,-1.56749 0,-0.899856 0.696662,-1.56749 2.002904,-1.56749 0.812773,0 1.596518,0.11611 2.322208,0.348331 v 2.148042 c -0.638608,0.435414 -1.393325,0.638607 -2.29318,0.638607 z" />
        <path
           inkscape:connector-curvature="0"
           id="path4520"
           style="font-style:normal;font-variant:normal;font-weight:normal;font-stretch:normal;font-family:'Rubrik Bold';-inkscape-font-specification:'Rubrik Bold, ';stroke-width:0.72568983"
           d="m 115.04011,69.464329 c -0.8418,-0.23222 -1.79971,-0.348331 -2.90276,-0.348331 -3.45428,0 -5.34107,1.944849 -5.34107,5.166912 v 8.621196 c 0,1.306242 1.10304,2.409291 2.40929,2.409291 1.36429,0 2.40929,-1.044994 2.40929,-2.409291 v -7.60523 c 0,-0.986938 0.40638,-1.480407 1.19013,-1.480407 0.3193,0 0.66763,0.02903 1.10305,0.11611 0.43541,0.08708 0.72569,0.116111 0.81277,0.116111 1.3643,0 2.14804,-1.161104 2.14804,-2.322208 0,-1.190131 -0.60958,-1.944849 -1.82874,-2.264153 z" />
        <path
           inkscape:connector-curvature="0"
           id="path4522"
           style="font-style:normal;font-variant:normal;font-weight:normal;font-stretch:normal;font-family:'Rubrik Bold';-inkscape-font-specification:'Rubrik Bold, ';stroke-width:0.72568983"
           d="m 124.05182,71.14793 c -0.37735,-1.161104 -1.39332,-1.915821 -2.46734,-1.915821 -0.92888,0 -1.65457,0.377358 -2.17707,1.132076 -0.49347,0.72569 -0.58055,1.56749 -0.20319,2.467346 l 4.70247,11.088541 c -0.66764,1.335269 -1.42236,2.351235 -2.26416,3.047898 -0.60958,0.493469 -0.92888,1.132076 -0.92888,1.915821 0,1.306242 0.92888,2.235125 2.29318,2.235125 0.66764,0 1.27722,-0.232221 1.88679,-0.667635 1.3643,-0.957911 2.64152,-2.728594 3.80262,-5.341078 l 5.3701,-12.249645 c 0.40639,-0.899855 0.34834,-1.712628 -0.20319,-2.467345 -0.5225,-0.783746 -1.24818,-1.161104 -2.17707,-1.161104 -1.04499,0 -2.06096,0.783745 -2.43832,1.944849 -1.13207,3.309146 -1.91582,5.979684 -2.35123,7.982588 -0.0871,0.232221 -0.3193,0.232221 -0.40639,0 -0.37736,-1.770683 -1.19013,-4.441222 -2.43832,-8.011616 z" />
      </g>
      <rect
         transform="rotate(45)"
         style="fill:#1d7b3f;fill-opacity:1;stroke-width:0.17954302"
         y="182.16203"
         x="197.51207"
         height="3.9900489"
         width="3.9900489"
         id="rect3703" />
    </g>
  </g>
</svg>
